<svg id="Layer_1" data-name="Layer 1" xmlns="http://www.w3.org/2000/svg" viewBox="0 0 183.54 82.84"><defs><style>.cls-1{fill:#005fa5;}</style></defs><path class="cls-1" d="M31.16,62.7H28.88l-2-4.87a12.46,12.46,0,0,1-4.18,4.38A10.51,10.51,0,0,1,17,63.84Q6.09,63.84,6.08,53.2V45.6Q6.08,35,17,35h8.82V22.5a5.32,5.32,0,0,0-1.75-4.26,7.69,7.69,0,0,0-5.17-1.52q-6.77,0-6.76,5.78V27H6.84V22.8c0-3.39,1-6,3-7.87s5-2.77,9.08-2.77,7.11.92,9.16,2.77,3.08,4.48,3.08,7.87ZM25.84,39.52H17c-2.12,0-3.59.53-4.4,1.6A7.17,7.17,0,0,0,11.4,45.6v7.6a7.19,7.19,0,0,0,1.22,4.48q1.22,1.6,4.4,1.6A8.67,8.67,0,0,0,23,56.81q2.75-2.48,2.89-4.9Z"/><path class="cls-1" d="M45.6,13.3H57.08q5.93,0,9,2.81a10.1,10.1,0,0,1,3.08,7.83V28.5q0,6.47-5.4,8.28,6.17,1.68,6.16,8.44v6.84c0,3.39-1,6-3,7.86s-5,2.78-9,2.78H45.6ZM63.84,28.5V23.94a5.73,5.73,0,0,0-1.75-4.48,7.15,7.15,0,0,0-5-1.6H50.92V35h6.16a6.75,6.75,0,0,0,5.05-1.75A6.44,6.44,0,0,0,63.84,28.5Zm.76,23.56V45.22a6.4,6.4,0,0,0-1.75-4.68,6.73,6.73,0,0,0-5-1.78H50.92V58.14h6.92Q64.59,58.14,64.6,52.06Z"/><path class="cls-1" d="M108.68,22.8V53.2a9.83,9.83,0,0,1-3.23,7.87q-3.24,2.76-9.65,2.77c-4.29,0-7.51-.93-9.69-2.77a9.76,9.76,0,0,1-3.27-7.87V22.8c0-3.39,1.07-6,3.23-7.87s5.37-2.77,9.65-2.77,7.51.92,9.69,2.77A9.76,9.76,0,0,1,108.68,22.8Zm-5.32,30.4V22.8q0-6.07-7.6-6.08t-7.6,6.08V53.2q0,6.07,7.6,6.08T103.36,53.2Z"/><path class="cls-1" d="M122,53.2V13.3h5.32V53.2a7.13,7.13,0,0,0,1.25,4.48q1.26,1.6,4.6,1.6a9,9,0,0,0,6.16-2.58q2.81-2.6,2.81-5V13.3h5.32V62.7h-2.28l-2-4.87a13,13,0,0,1-4.29,4.38,10.72,10.72,0,0,1-5.74,1.63Q122,63.84,122,53.2Z"/><path class="cls-1" d="M161.5,13.3h16.72v4.56h-11.4v36.4a5.67,5.67,0,0,0,1.1,3.57A3.67,3.67,0,0,0,171,59.28a3.61,3.61,0,0,0,3.07-1.41,5.8,5.8,0,0,0,1.07-3.61v-9h5.32V54c0,3.19-.85,5.64-2.55,7.33a9.29,9.29,0,0,1-6.88,2.55,9.55,9.55,0,0,1-6.95-2.55c-1.75-1.69-2.62-4.14-2.62-7.33Z"/></svg>