<svg id="Layer_1" data-name="Layer 1" xmlns="http://www.w3.org/2000/svg" viewBox="0 0 1056.65 271.32"><defs><style>.cls-1{fill:#005fa5;}</style></defs><path class="cls-1" d="M102.06,205.36H94.59l-6.47-15.93a41.29,41.29,0,0,1-13.69,14.31,34.24,34.24,0,0,1-18.67,5.35q-35.85,0-35.85-34.85V149.35q0-34.84,35.85-34.85H84.63V73.68q0-9-5.72-13.94T62,54.76q-22.15,0-22.15,18.92V88.37H22.4V74.67q0-16.66,9.83-25.76T62,39.83q19.92,0,30,9.08t10.08,25.76ZM84.63,129.44H55.76q-10.45,0-14.44,5.23t-4,14.68v24.89q0,9.47,4,14.69t14.44,5.23q10.46,0,19.41-8.09T84.63,170Z"/><path class="cls-1" d="M166.78,205.36H149.35V43.56h7.47L163,59.74q12-19.91,33.11-19.91,36.58,0,36.59,34.84V205.36H215.32V74.67q0-9.45-4.11-14.68t-15.06-5.23q-11,0-20.16,8.46t-9.21,16.43Z"/><path class="cls-1" d="M297.46,205.36H280V43.56h17.43Z"/><path class="cls-1" d="M364.66,205.36H347.24V43.56h7.47l6.22,15.93a41.2,41.2,0,0,1,13.69-14.31A33.78,33.78,0,0,1,393,39.83q25.14,0,32.11,18.17,12-18.16,31.37-18.17,35.09,0,35.09,34.84V205.36H474.19V74.67q0-19.9-17.92-19.91-10.45,0-19.3,8.46t-8.83,16.43V205.36H410.71V74.67q0-19.9-17.92-19.91-10.46,0-19.29,8.09t-8.84,16.06Z"/><path class="cls-1" d="M616.07,205.36H608.6l-6.47-15.93a41.2,41.2,0,0,1-13.69,14.31,34.22,34.22,0,0,1-18.67,5.35q-35.84,0-35.84-34.85V149.35q0-34.84,35.84-34.85h28.88V73.68q0-9-5.73-13.94t-16.93-5q-22.15,0-22.15,18.92V88.37H536.42V74.67q0-16.66,9.83-25.76T576,39.83q19.92,0,30,9.08t10.08,25.76Zm-17.42-75.92H569.77q-10.46,0-14.44,5.23t-4,14.68v24.89q0,9.47,4,14.69t14.44,5.23q10.46,0,19.42-8.09T598.65,170Z"/><path class="cls-1" d="M659.63,43.56h54.76V58.5H677.06V177.73a18.69,18.69,0,0,0,3.61,11.7q3.6,4.73,10.2,4.73T701,189.55q3.48-4.61,3.49-11.82V148.11h17.42v28.62q0,15.69-8.34,24T691,209.09q-14.19,0-22.78-8.34t-8.59-24Z"/><path class="cls-1" d="M774.13,205.36H756.71V43.56h17.42Z"/><path class="cls-1" d="M904.82,74.67v99.57q0,16.68-10.58,25.77t-31.62,9.08q-21,0-31.73-9.08t-10.71-25.77V74.67q0-16.66,10.58-25.76t31.62-9.08q21,0,31.73,9.08T904.82,74.67Zm-17.43,99.57V74.67q0-19.9-24.89-19.91T837.61,74.67v99.57q0,19.92,24.89,19.92T887.39,174.24Z"/><path class="cls-1" d="M968.29,205.36H950.86V43.56h7.47l6.22,16.18q12-19.91,33.11-19.91,36.58,0,36.59,34.84V205.36h-17.42V74.67q0-9.45-4.11-14.68t-15.06-5.23q-10.95,0-20.16,8.46t-9.21,16.43Z"/></svg>