<svg id="Layer_1" data-name="Layer 1" xmlns="http://www.w3.org/2000/svg" viewBox="0 0 896 1187"><defs><style>.cls-1{fill:#005faa;}.cls-2{fill:#f2f2f2;}.cls-3{fill:#1a1a1a;}.cls-4{fill:#b3b3b3;}.cls-5{fill:#a67c52;}.cls-6{fill:#754c24;}.cls-7{fill:#42210b;}.cls-8{fill:#1b1464;}.cls-9{fill:#2e3192;}</style></defs><path class="cls-1" d="M896,.21V1187H0V.21H339l4.19,0c66.74,1.94,133.5-1,200.16,0H896Z"/><rect class="cls-2" x="18" y="907" width="859" height="207"/><rect class="cls-3" x="16" y="907" width="861" height="262"/><path class="cls-4" d="M18.5,906.5s234-260.09,429-260c197,0,429,260,429,260Z"/><path class="cls-5" d="M32.66,907s225.83-233.54,414-233.5c190.14,0,414.05,233.5,414.05,233.5Z"/><path class="cls-4" d="M18.91,1009.5s234-260.09,429-260c197,0,429,260,429,260Z"/><path class="cls-6" d="M33.91,1009.5S259.74,776,448,776c190.13,0,414,233.5,414,233.5Z"/><path class="cls-4" d="M18.91,1114s234-260.09,429-260c197,0,429,260,429,260Z"/><path class="cls-7" d="M33.91,1114S259.74,880.46,448,880.5C638.09,880.54,862,1114,862,1114Z"/><path class="cls-8" d="M877,19.13V365H18V19.13H343l4,0c64,1.23,128-.66,191.89,0H877Z"/><path class="cls-9" d="M877,289.82V503H18V289.82H347c64,.77,128-.4,191.89,0H877Z"/><path class="cls-2" d="M507.45,1052.2h11.3c8.06,0,12.17,4,12.17,13v3c0,8.38-3,13.95-12.61,13.95h-3V1103h-7.83Zm7.83,23.5h2.15c4.88,0,5.72-2.85,5.72-7.81v-2.49c0-3.7-.68-6.74-5-6.74h-2.84Z"/><path class="cls-2" d="M569.22,1065.67v23.71c0,9.73-4.13,14.33-12.73,14.33-8.25,0-12-4.72-12-14.2v-23.9c0-9.72,4.9-14.15,12.46-14.15S569.22,1055.9,569.22,1065.67Zm-16.73-.76v25.53c0,4.22,1.53,6.2,4.35,6.2,3,0,4.41-1.85,4.41-6.31v-25.48c0-4-1.24-6.26-4.42-6.26C554,1058.59,552.49,1060.61,552.49,1064.91Z"/><path class="cls-2" d="M592.8,1080.26V1103H585V1052.2h10.85c7.72,0,12.28,3.09,12.28,12.23v1.93c0,7.81-3.2,9.79-5.17,10.6,3,1.39,4.66,3.52,4.66,10.41,0,4.27-.08,12.52.46,15.6h-7.56c-.67-3.07-.53-11.41-.53-15.1,0-6.19-.8-7.61-5.34-7.61Zm0-6.46h1.8c4.14,0,5.66-1.56,5.66-7.08V1065c0-3.93-.81-6.32-5.25-6.32H592.8Z"/><path class="cls-2" d="M628.15,1059.46H620v-7.26h24.18v7.26H636V1103h-7.83Z"/><path class="cls-2" d="M657.55,1052.2h19.78v7.26h-12v13.36h11.38v7.27H665.38V1103h-7.83Z"/><path class="cls-2" d="M715.21,1065.67v23.71c0,9.73-4.13,14.33-12.73,14.33-8.25,0-12-4.72-12-14.2v-23.9c0-9.72,4.9-14.15,12.47-14.15S715.21,1055.9,715.21,1065.67Zm-16.72-.76v25.53c0,4.22,1.52,6.2,4.34,6.2,3,0,4.41-1.85,4.41-6.31v-25.48c0-4-1.24-6.26-4.42-6.26C700,1058.59,698.49,1060.61,698.49,1064.91Z"/><path class="cls-2" d="M731,1052.2h7.83V1096h12.77l-.66,7H731Z"/><path class="cls-2" d="M772.61,1052.2V1103h-7.83V1052.2Z"/><path class="cls-2" d="M813.1,1065.67v23.71c0,9.73-4.13,14.33-12.73,14.33-8.26,0-12-4.72-12-14.2v-23.9c0-9.72,4.89-14.15,12.46-14.15S813.1,1055.9,813.1,1065.67Zm-16.73-.76v25.53c0,4.22,1.52,6.2,4.35,6.2,3,0,4.4-1.85,4.4-6.31v-25.48c0-4-1.23-6.26-4.41-6.26C797.89,1058.59,796.37,1060.61,796.37,1064.91Z"/></svg>