<svg id="Layer_1" data-name="Layer 1" xmlns="http://www.w3.org/2000/svg" viewBox="0 0 887 116.99"><defs><style>.cls-1{fill:#005fa5;}.cls-2{fill:#ededed;}</style></defs><rect class="cls-1" y="-0.01" width="887" height="117"/><path class="cls-2" d="M94.5,13.48h19.09c16.11,0,22.29,7.54,22.29,21.18v3.42c0,13.2-4.56,17-8.63,18.7,4.15,1.65,10.36,5.12,10.36,18.66v7c0,15.73-6.56,24-22.75,24H94.5ZM112,51.36c8,0,10.43-2.48,10.43-11.7V36c0-7.72-2.75-10.7-9.61-10.7h-4.44v26Zm-3.62,43.42h4.79c8.28,0,10.35-3.66,10.35-12.66V75.93c0-9.08-2.3-13-11.44-13h-3.7Z"/><path class="cls-2" d="M178,81.62l-3.26,24.88H160.19l15-93h20.27l15.56,93H196l-3.65-24.88Zm12.61-13.19c-2.12-15.8-4.16-30.79-5.22-41.31h-.52c-.41,7.66-3.2,27.58-5.06,41.31Z"/><path class="cls-2" d="M246.57,79.13v5.75c0,6.92,2.07,10.77,7.53,10.77s7-5.3,7-11.34c0-10-2.15-13.1-12.13-21s-15.35-13-15.35-26.72c0-12.26,3.71-24.63,20.5-24.62C271.32,12,274,24.26,274,34.35v5H259.74V34.74c0-6.48-1.09-10.4-5.86-10.4S248,28.39,248,34.56c0,6.57,1.25,9.79,9.43,15.77C271.34,60.62,275.6,66.6,275.6,82.16c0,13.2-4.62,25.7-22,25.7-17.2,0-21.4-11-21.4-23.21V79.13Z"/><path class="cls-2" d="M317.3,13.48v93H303v-93Z"/><path class="cls-2" d="M388.54,78.69v3.63c0,10.64-1.77,25.54-21.44,25.54-17.23,0-20.88-10.76-20.88-25V36c0-14.35,6.52-23.87,21.13-23.87,17.44,0,20.78,11.56,20.78,24.45v4.17H373.75V34.9c0-6.19-1.45-9.7-6.44-9.7s-6.48,3.38-6.48,9.75V84.13c0,6.07,1.21,10.79,6.66,10.79,5.18,0,6.55-4.1,6.55-11V78.69Z"/></svg>