<svg id="Layer_1" data-name="Layer 1" xmlns="http://www.w3.org/2000/svg" viewBox="0 0 821.43 271.32"><defs><style>.cls-1{fill:#005fa5;}</style></defs><path class="cls-1" d="M85.88,174.24V160.55H103.3v13.69q0,16.68-10.2,25.77t-30.62,9.08q-20.41,0-30.87-9.08T21.16,174.24V74.67q0-16.66,10.2-25.76T62,39.83q20.42,0,30.87,9.08T103.3,74.67V98.32H85.88V74.67q0-19.9-23.65-19.91T38.58,74.67v99.57q0,19.92,23.65,19.92T85.88,174.24Z"/><path class="cls-1" d="M227.76,74.67v99.57q0,16.68-10.58,25.77t-31.61,9.08q-21,0-31.74-9.08t-10.7-25.77V74.67q0-16.66,10.58-25.76t31.61-9.08q21,0,31.74,9.08T227.76,74.67Zm-17.43,99.57V74.67q0-19.9-24.89-19.91T160.55,74.67v99.57q0,19.92,24.89,19.92T210.33,174.24Z"/><path class="cls-1" d="M291.23,205.36H273.81V43.56h7.47l6.22,16.18q11.94-19.91,33.11-19.91,36.58,0,36.59,34.84V205.36H339.77V74.67q0-9.45-4.1-14.68t-15.06-5.23q-11,0-20.17,8.46t-9.21,16.43Z"/><path class="cls-1" d="M400.76,43.56h54.76V58.5H418.18V177.73a18.69,18.69,0,0,0,3.61,11.7q3.6,4.73,10.21,4.73t10.08-4.61q3.48-4.61,3.48-11.82V148.11H463v28.62q0,15.69-8.34,24t-22.53,8.34q-14.19,0-22.78-8.34t-8.58-24Z"/><path class="cls-1" d="M558.82,174.24V160.55h17.43v13.69q0,16.68-10.21,25.77t-30.62,9.08q-20.42,0-30.86-9.08T494.1,174.24V74.67q0-16.66,10.21-25.76t30.61-9.08q20.42,0,30.87,9.08t10.46,25.76v54.77H511.53v44.8q0,19.92,23.64,19.92T558.82,174.24ZM511.53,74.67V114.5h47.29V74.67q0-19.9-23.65-19.91T511.53,74.67Z"/><path class="cls-1" d="M639.72,205.36H622.29V43.56h7.47L636,59.74q11.94-19.91,33.1-19.91,36.6,0,36.59,34.84V205.36H688.26V74.67q0-9.45-4.11-14.68t-15.06-5.23q-11,0-20.16,8.46t-9.21,16.43Z"/><path class="cls-1" d="M749.24,43.56H804V58.5H766.67V177.73a18.69,18.69,0,0,0,3.61,11.7q3.6,4.73,10.2,4.73t10.08-4.61q3.5-4.61,3.49-11.82V148.11h17.42v28.62q0,15.69-8.34,24t-22.52,8.34q-14.19,0-22.78-8.34t-8.59-24Z"/></svg>