<svg id="Layer_1" data-name="Layer 1" xmlns="http://www.w3.org/2000/svg" viewBox="0 0 331.51 64.21"><defs><style>.cls-1{fill:#c9c9c9;}</style></defs><path class="cls-1" d="M2.61,10.56h7.91c6.67,0,9.24,3.12,9.24,8.77v1.42c0,5.46-1.9,7-3.58,7.74,1.72.69,4.29,2.13,4.29,7.73v2.93c0,6.51-2.72,10-9.43,10H2.61ZM9.85,26.25c3.32,0,4.32-1,4.32-4.85V19.9c0-3.2-1.14-4.44-4-4.44H8.35V26.25Zm-1.5,18h2c3.43,0,4.29-1.52,4.29-5.25V36.43c0-3.76-.95-5.38-4.74-5.38H8.35Z"/><path class="cls-1" d="M37.22,38.79,35.87,49.1h-6L36,10.56h8.4L50.88,49.1H44.66L43.15,38.79Zm5.23-5.47c-.89-6.55-1.73-12.76-2.17-17.11h-.22C39.9,19.38,38.74,27.63,38,33.32Z"/><path class="cls-1" d="M65.61,37.75v2.38c0,2.87.86,4.47,3.12,4.47s2.92-2.2,2.92-4.7c0-4.14-.9-5.43-5-8.69s-6.36-5.36-6.36-11.07c0-5.08,1.53-10.2,8.49-10.2S77,15,77,19.2v2.06H71.07v-1.9c0-2.68-.45-4.31-2.43-4.31s-2.44,1.68-2.44,4.24c0,2.72.52,4.05,3.91,6.53,5.76,4.27,7.53,6.74,7.53,13.19,0,5.47-1.92,10.65-9.11,10.65S59.67,45.12,59.67,40V37.75Z"/><path class="cls-1" d="M94.91,10.56V49.1H89V10.56Z"/><path class="cls-1" d="M124.43,37.57v1.51c0,4.4-.73,10.58-8.88,10.58-7.14,0-8.65-4.46-8.65-10.34V19.88c0-5.94,2.69-9.89,8.75-9.89,7.23,0,8.61,4.79,8.61,10.13v1.73h-6V19.43c0-2.56-.6-4-2.67-4s-2.68,1.4-2.68,4V39.83c0,2.51.5,4.46,2.76,4.46s2.71-1.69,2.71-4.56V37.57Z"/><path class="cls-1" d="M159.74,37.57v1.51c0,4.4-.74,10.58-8.89,10.58-7.13,0-8.65-4.46-8.65-10.34V19.88c0-5.94,2.7-9.89,8.76-9.89,7.22,0,8.6,4.79,8.6,10.13v1.73h-5.95V19.43c0-2.56-.6-4-2.67-4s-2.68,1.4-2.68,4V39.83c0,2.51.5,4.46,2.75,4.46s2.72-1.69,2.72-4.56V37.57Z"/><path class="cls-1" d="M188.7,20.79v18c0,7.39-3.13,10.88-9.66,10.88-6.27,0-9.09-3.58-9.09-10.78V20.74c0-7.38,3.72-10.75,9.46-10.75S188.7,13.37,188.7,20.79ZM176,20.2V39.59c0,3.2,1.16,4.7,3.3,4.7,2.31,0,3.35-1.4,3.35-4.79V20.16c0-3.06-.94-4.75-3.35-4.75C177.16,15.41,176,16.94,176,20.2Z"/><path class="cls-1" d="M200.66,49.1V10.56h6.88c1.54,5.43,6.14,24.46,6.54,26.5h.07c-.28-4.74-.29-10.16-.29-16.5v-10h5.49V49.1h-6.63c-1.21-4.61-6.34-25.75-6.73-27.36h-.05c.28,4.66.26,9.89.26,16.82V49.1Z"/><path class="cls-1" d="M235.69,16.07H229.5V10.56h18.36v5.51h-6.23v33h-5.94Z"/><path class="cls-1" d="M272.37,31.49H263.9V43.63h9.76l-.75,5.47H258V10.56h14.88v5.51H263.9V26h8.47Z"/><path class="cls-1" d="M284.31,49.1V10.56h6.88c1.54,5.43,6.14,24.46,6.55,26.5h.06c-.27-4.74-.29-10.16-.29-16.5v-10H303V49.1h-6.62c-1.22-4.61-6.35-25.75-6.73-27.36h-.06c.28,4.66.26,9.89.26,16.82V49.1Z"/><path class="cls-1" d="M319.34,16.07h-6.19V10.56h18.36v5.51h-6.23v33h-5.94Z"/></svg>