<svg id="Layer_1" data-name="Layer 1" xmlns="http://www.w3.org/2000/svg" viewBox="0 0 371.25 84.07"><defs><style>.cls-1{fill:#e1e1e1;}</style></defs><rect class="cls-1" y="31.66" width="117" height="12.58" rx="5.21"/><path class="cls-1" d="M60.94,20.31,11.78,43.38c-3.68,1.73-8.43.69-10.56-2.3h0c-2.13-3-.85-6.86,2.83-8.59L53.21,9.42c3.68-1.73,8.44-.7,10.56,2.3h0C65.9,14.71,64.63,18.58,60.94,20.31Z"/><path class="cls-1" d="M60.83,55.64,11.67,32.56C8,30.83,3.23,31.87,1.1,34.86h0c-2.13,3-.85,6.86,2.83,8.59L53.09,66.53c3.69,1.73,8.44.69,10.57-2.3h0C65.78,61.23,64.51,57.37,60.83,55.64Z"/><path class="cls-1" d="M166.58,64.28h-6.06a30.42,30.42,0,0,1-.43-3.79c-1.4,3.35-4.32,4.52-7.58,4.52-7.43,0-9.82-5.37-9.82-13.92V27.39c0-8.24,3.21-14.31,12-14.31,10.6,0,11.71,7.8,11.71,13.21v1.64H158.6v-2c0-2.66-.38-5.74-3.94-5.74-2.83,0-4,2-4,6V52c0,4,1.17,6.15,4,6.15,3.37,0,4.19-2.82,4.19-8V42.75h-4.41V36.06h12.2Z"/><path class="cls-1" d="M206.29,27.21V50.77c0,9.67-4.11,14.24-12.66,14.24-8.2,0-11.89-4.68-11.89-14.1V27.16c0-9.67,4.87-14.08,12.39-14.08S206.29,17.5,206.29,27.21Zm-16.62-.76V51.83C189.67,56,191.18,58,194,58c3,0,4.38-1.84,4.38-6.27V26.39c0-4-1.23-6.22-4.38-6.22C191.17,20.17,189.67,22.18,189.67,26.45Z"/><path class="cls-1" d="M231.84,13.82h10.35c8.74,0,12.1,4.09,12.1,11.49v1.85c0,7.16-2.48,9.23-4.69,10.14,2.25.9,5.62,2.78,5.62,10.12v3.83c0,8.53-3.56,13-12.34,13h-11Zm9.48,20.55C245.67,34.37,247,33,247,28v-2c0-4.19-1.49-5.8-5.21-5.8h-2.41V34.37Zm-2,23.55H242c4.49,0,5.61-2,5.61-6.87V47.69c0-4.92-1.25-7-6.2-7h-2Z"/><path class="cls-1" d="M277.15,50.78l-1.77,13.5h-7.91l8.12-50.46h11L295,64.28h-8.14l-2-13.5ZM284,43.62c-1.15-8.57-2.25-16.7-2.83-22.4h-.29c-.21,4.15-1.73,15-2.74,22.4Z"/><path class="cls-1" d="M330.83,49.19v2c0,5.77-1,13.85-11.63,13.85-9.34,0-11.32-5.84-11.32-13.53V26c0-7.78,3.53-12.95,11.45-12.95,9.47,0,11.27,6.28,11.27,13.27v2.26h-7.8V25.44c0-3.36-.78-5.27-3.48-5.27S315.8,22,315.8,25.46V52.14c0,3.29.66,5.85,3.61,5.85S323,55.77,323,52V49.19Z"/><path class="cls-1" d="M345.28,13.82h7.65V36.61H353c1.94-5,6.26-15.85,9-22.79h8.66l-9.19,19.61,9.74,30.85h-8.48l-6.59-22.72-3.25,6.79V64.28h-7.65Z"/></svg>