<svg id="Layer_1" data-name="Layer 1" xmlns="http://www.w3.org/2000/svg" viewBox="0 0 30.93 654.59"><defs><style>.cls-1{fill:#e6e6e6;}</style></defs><path class="cls-1" d="M7,13.91H14.8V57.68H27.57l-.67,7H7Z"/><path class="cls-1" d="M19.36,70.91v50.77H11.53V70.91Z"/><path class="cls-1" d="M10.82,178.68,1.93,127.91h8.46l2.7,20.65c.89,6.84,2,14,2.44,19.86h.14c.45-5.5,1.62-12.75,2.44-19.7l2.53-20.81H29l-8.65,50.77Z"/><path class="cls-1" d="M7,241.91H14.8v43.77H27.57l-.67,7H7Z"/><path class="cls-1" d="M19.36,298.91v50.77H11.53V298.91Z"/><path class="cls-1" d="M7,355.91H14.8v43.77H27.57l-.67,7H7Z"/><path class="cls-1" d="M3.44,412.91h7.83v20h8.42v-20h7.83v50.77H19.69V440.15H11.27v23.53H3.44Z"/><path class="cls-1" d="M27.81,483.38v23.71c0,9.73-4.13,14.33-12.73,14.33-8.25,0-12-4.72-12-14.2v-23.9c0-9.72,4.9-14.16,12.47-14.16S27.81,473.61,27.81,483.38Zm-16.72-.77v25.54c0,4.22,1.52,6.2,4.34,6.2,3.05,0,4.41-1.85,4.41-6.31V482.56c0-4-1.24-6.26-4.42-6.26C12.6,476.3,11.09,478.32,11.09,482.61Z"/><path class="cls-1" d="M7,526.91H14.8v43.77H27.57l-.67,7H7Z"/><path class="cls-1" d="M11.55,591.17H3.39v-7.26H27.57v7.26H19.38v43.51H11.55Z"/></svg>