<svg id="Layer_1" data-name="Layer 1" xmlns="http://www.w3.org/2000/svg" viewBox="0 0 1156 122.1"><defs><style>.cls-1{fill:#1b1464;}.cls-2{fill:#ededed;}</style></defs><rect class="cls-1" y="-0.01" width="1156" height="122"/><path class="cls-2" d="M322.9,13h21.9c15.64,0,23.62,7.72,23.62,25.14v5.8C368.42,60.18,362.61,71,344,71h-5.86v40.49H322.9Zm15.19,45.58h4.16c9.47,0,11.09-5.53,11.09-15.14V38.59c0-7.16-1.3-13.06-9.74-13.06h-5.51Z"/><path class="cls-2" d="M412.1,67.43v44H396.91V13h21c15,0,23.83,6,23.83,23.73v3.75c0,15.13-6.21,19-10,20.54,5.75,2.7,9,6.84,9,20.2,0,8.29-.15,24.29.9,30.26H427c-1.31-6-1-22.13-1-29.28,0-12-1.54-14.76-10.36-14.76Zm0-12.54h3.48c8,0,11-3,11-13.74V37.77c0-7.61-1.57-12.24-10.18-12.24H412.1Z"/><path class="cls-2" d="M517.32,39.12v46c0,18.88-8,27.8-24.7,27.8-16,0-23.21-9.15-23.21-27.54V39c0-18.86,9.5-27.46,24.18-27.46C508.52,11.55,517.32,20.17,517.32,39.12Zm-32.44-1.48V87.17c0,8.19,2.95,12,8.43,12,5.9,0,8.54-3.59,8.54-12.25V37.52c0-7.81-2.4-12.14-8.56-12.14C487.82,25.38,484.88,29.3,484.88,37.64Z"/><path class="cls-2" d="M568.25,89c0,13.15-1.74,23.64-19.28,23.64a52,52,0,0,1-7.73-.69V99a34.11,34.11,0,0,0,4.58.3c5.31,0,7.25-1.42,7.25-8.49V13h15.18Z"/><path class="cls-2" d="M636.78,66.48H615.13v31h25l-1.92,14H599.94V13h38V27.08H615.13V52.51h21.65Z"/><path class="cls-2" d="M710,82v3.84c0,11.26-1.88,27.05-22.7,27.05-18.24,0-22.1-11.4-22.1-26.43V36.82c0-15.19,6.89-25.27,22.36-25.27,18.47,0,22,12.24,22,25.89v4.41H694.34v-6.2c0-6.54-1.53-10.27-6.81-10.27s-6.86,3.59-6.86,10.33V87.78c0,6.43,1.28,11.42,7.05,11.42,5.48,0,6.94-4.34,6.94-11.67V82Z"/><path class="cls-2" d="M747.39,27.08H731.58V13h46.9V27.08h-15.9v84.39H747.39Z"/><path class="cls-2" d="M814.9,82.48v6.09c0,7.33,2.19,11.41,8,11.41s7.45-5.61,7.45-12c0-10.58-2.28-13.86-12.84-22.2s-16.26-13.71-16.26-28.29c0-13,3.92-26.08,21.7-26.06,18.18,0,21,13,21,23.66v5.26H828.84V35.48c0-6.85-1.15-11-6.2-11s-6.23,4.29-6.23,10.81c0,7,1.32,10.37,10,16.7,14.74,10.9,19.26,17.23,19.26,33.71,0,14-4.9,27.21-23.27,27.21s-22.66-11.61-22.66-24.58V82.48Z"/></svg>