<svg id="Layer_1" data-name="Layer 1" xmlns="http://www.w3.org/2000/svg" viewBox="0 0 191.01 64.21"><defs><style>.cls-1{fill:#c9c9c9;}</style></defs><path class="cls-1" d="M2.61,10.56h7.91c6.67,0,9.24,3.12,9.24,8.77v1.42c0,5.46-1.9,7-3.58,7.74,1.72.69,4.29,2.13,4.29,7.73v2.93c0,6.51-2.72,10-9.43,10H2.61ZM9.85,26.25c3.32,0,4.32-1,4.32-4.85V19.9c0-3.2-1.14-4.44-4-4.44H8.35V26.25Zm-1.5,18h2c3.43,0,4.29-1.52,4.29-5.25V36.43c0-3.76-.95-5.38-4.74-5.38H8.35Z"/><path class="cls-1" d="M37.22,38.79,35.87,49.1h-6L36,10.56h8.4L50.88,49.1H44.66L43.15,38.79Zm5.23-5.47c-.89-6.55-1.73-12.76-2.17-17.11h-.22C39.9,19.38,38.74,27.63,38,33.32Z"/><path class="cls-1" d="M65.61,37.75v2.38c0,2.87.86,4.47,3.12,4.47s2.92-2.2,2.92-4.7c0-4.14-.9-5.43-5-8.69s-6.36-5.36-6.36-11.07c0-5.08,1.53-10.2,8.49-10.2S77,15,77,19.2v2.06H71.07v-1.9c0-2.68-.45-4.31-2.43-4.31s-2.44,1.68-2.44,4.24c0,2.72.52,4.05,3.91,6.53,5.76,4.27,7.53,6.74,7.53,13.19,0,5.47-1.92,10.65-9.11,10.65S59.67,45.12,59.67,40V37.75Z"/><path class="cls-1" d="M94.91,10.56V49.1H89V10.56Z"/><path class="cls-1" d="M124.43,37.57v1.51c0,4.4-.73,10.58-8.88,10.58-7.14,0-8.65-4.46-8.65-10.34V19.88c0-5.94,2.69-9.89,8.75-9.89,7.23,0,8.61,4.79,8.61,10.13v1.73h-6V19.43c0-2.56-.6-4-2.67-4s-2.68,1.4-2.68,4V39.83c0,2.51.5,4.46,2.76,4.46s2.71-1.69,2.71-4.56V37.57Z"/><path class="cls-1" d="M148.75,10.56V39.87c0,2.82.92,4.42,3.22,4.42s3.12-1.8,3.12-4.41V10.56H161v29.2c0,6.08-2.75,9.9-9.18,9.9-6.13,0-9.06-3.32-9.06-9.88V10.56Z"/><path class="cls-1" d="M184.43,49.1l-3.81-13.94h-.05L176.5,49.1h-6.15l6.82-19.61-6.51-18.93h6.57l3.55,12.75h.05l3.52-12.75h6.21l-6.48,18L191,49.1Z"/></svg>