<svg id="Layer_1" data-name="Layer 1" xmlns="http://www.w3.org/2000/svg" viewBox="0 0 243.19 271.32"><defs><style>.cls-1{fill:#005fa5;}</style></defs><path class="cls-1" d="M22.4,174.24V43.56H39.83V174.24q0,9.47,4.1,14.69T59,194.16q11,0,20.17-8.47t9.21-16.43V43.56h17.42v161.8H98.32l-6.47-15.93a43.06,43.06,0,0,1-14.06,14.31A34.85,34.85,0,0,1,59,209.09Q22.41,209.09,22.4,174.24Z"/><path class="cls-1" d="M233.24,205.36H215.07l-28.13-63-28.13,63H140.64L178,122,143.13,43.56H161.3l26.63,60.24,27.14-60.24h18.17l-36.1,80.65Z"/></svg>